@startuml
class User {
- name : String
- email : String
- password : String
+ browseBooks() : void
+ leaveReview(book: Book, review: Review) : void
}

class Book {
- title : String
- author : String
- genre : String
- price : double

+ getDetails() : String

}

class Review {

- rating : int
- comment : String
- dateOfReview : Date

}

User "1" -- "0..*" Review

Book "1" -- "0..*" Inventory

Inventory "1" -- "0..*" Book

class Order {

- orderID : int
- dateOfPurchase : Date
- shippingAddress : String

+ calculateTotalPrice() : double
+ updateOrderStatus() : void

}

User "1" -- "1" Order

Order "0..*" -- "1" Book

class Admin {

- username : String
- password : String

+ manageInventory() : void
+ respondToInquiries() : void
+ trackOrders() : void

}

@enduml