@startuml
class User {
  username
  password
  dateOfBirth
  email
  getAge()
  followArtist()
  createPlaylist()
  listenToSong()
}
class Artist {
  name
  genre
  musicLabel
  getMusicLabel()
  getAlbums()
  getSongs()
  getFollowers()
}
class Song {
  title
  duration
  artist
  album
  getArtist()
  getAlbum()
  getDuration()
}
class Playlist {
  name
  user
  songs
  getUser()
  getSongs()
  addSong()
  removeSong()
}
class MusicLabel {
  name
  artists
  albums
  royaltyPayments
  getArtists()
  getAlbums()
  getRoyaltyPayments()
  manageArtist()
}
class Album {
  title
  releaseDate
  artist
  songs
  getArtist()
  getSongs()
  getReleaseDate()
}
class RoyaltyPayment {
  amount
  discount
  musicLabel
  getMusicLabel()
  getAmount()
  getDiscount()
  getDiscountedPayment()
}
User "1" *-- "many" Artist : follows
User "1" *-- "many" Playlist : creates
User "1" *-- "many" Song : listens
Artist "1" *-- "many" Album : has
Artist "1" *-- "many" Song : has
MusicLabel "1" *-- "many" Artist : manages
MusicLabel "1" *-- "many" RoyaltyPayment : receives
Playlist "many" -- "many" Song : contains
@enduml